<svg width="3318" height="1106" viewBox="0 0 3318 1106" fill="none" xmlns="http://www.w3.org/2000/svg">
<g clip-path="url(#clip0_18_47)">
<path d="M1186.91 688L1117.1 421.24V688H1077.71V415H1154.93L1224.35 681.76L1295.33 415H1372.55V688H1333.55V421.24L1263.35 688H1186.91ZM1487.05 693.07C1446.88 693.07 1418.41 666.94 1418.41 629.5C1418.41 592.06 1446.1 570.22 1484.71 566.32L1552.96 559.3C1552.57 535.51 1535.41 516.79 1505.38 516.79C1477.69 516.79 1464.43 534.34 1460.92 550.33L1426.21 540.19C1435.18 505.09 1464.04 482.47 1505.38 482.47C1563.88 482.47 1591.18 521.47 1591.18 561.64V688H1552.57V626.38C1552.57 668.89 1525.27 693.07 1487.05 693.07ZM1457.41 629.5C1457.41 648.61 1473.79 660.7 1495.24 660.7C1536.58 660.7 1552.96 630.67 1552.96 602.2V591.28L1493.29 597.52C1469.5 600.25 1457.41 611.17 1457.41 629.5ZM1634.71 688V415H1673.71V688H1634.71ZM1779.19 693.07C1739.02 693.07 1710.55 666.94 1710.55 629.5C1710.55 592.06 1738.24 570.22 1776.85 566.32L1845.1 559.3C1844.71 535.51 1827.55 516.79 1797.52 516.79C1769.83 516.79 1756.57 534.34 1753.06 550.33L1718.35 540.19C1727.32 505.09 1756.18 482.47 1797.52 482.47C1856.02 482.47 1883.32 521.47 1883.32 561.64V688H1844.71V626.38C1844.71 668.89 1817.41 693.07 1779.19 693.07ZM1749.55 629.5C1749.55 648.61 1765.93 660.7 1787.38 660.7C1828.72 660.7 1845.1 630.67 1845.1 602.2V591.28L1785.43 597.52C1761.64 600.25 1749.55 611.17 1749.55 629.5ZM2003.68 774.97C1946.74 774.97 1907.74 755.08 1907.74 721.15C1907.74 699.7 1924.51 680.59 1963.12 680.59H1969.36C1941.28 677.86 1928.02 666.16 1928.02 650.17C1928.02 635.35 1941.28 621.7 1969.36 620.53C1940.11 610.39 1922.56 585.82 1922.56 554.23C1922.56 510.94 1956.49 482.47 2002.51 482.47C2020.06 482.47 2035.66 487.93 2043.07 491.83L2105.47 484.03V521.86H2031.76C2068.42 524.2 2080.51 547.6 2080.51 565.54C2080.51 603.76 2044.24 625.99 2002.51 625.99C1991.59 625.99 1981.45 624.43 1972.48 621.7C1968.58 624.82 1965.85 629.89 1965.85 634.57C1965.85 644.71 1975.99 649 1986.52 649H2037.61C2080.12 649 2108.59 672.01 2108.59 707.11C2108.59 760.93 2050.48 774.97 2003.68 774.97ZM1944.01 709.06C1944.01 733.63 1972.87 741.04 2003.68 741.04C2039.17 741.04 2068.81 732.85 2068.81 708.28C2068.81 693.46 2056.72 682.54 2032.54 682.54H1976.77C1956.88 682.54 1944.01 693.85 1944.01 709.06ZM1960.39 554.23C1960.39 578.41 1977.16 595.18 2002.51 595.18C2027.86 595.18 2044.24 578.41 2044.24 554.23C2044.24 531.22 2027.86 513.67 2002.51 513.67C1977.16 513.67 1960.39 531.22 1960.39 554.23ZM2195.1 693.07C2154.93 693.07 2126.46 666.94 2126.46 629.5C2126.46 592.06 2154.15 570.22 2192.76 566.32L2261.01 559.3C2260.62 535.51 2243.46 516.79 2213.43 516.79C2185.74 516.79 2172.48 534.34 2168.97 550.33L2134.26 540.19C2143.23 505.09 2172.09 482.47 2213.43 482.47C2271.93 482.47 2299.23 521.47 2299.23 561.64V688H2260.62V626.38C2260.62 668.89 2233.32 693.07 2195.1 693.07ZM2165.46 629.5C2165.46 648.61 2181.84 660.7 2203.29 660.7C2244.63 660.7 2261.01 630.67 2261.01 602.2V591.28L2201.34 597.52C2177.55 600.25 2165.46 611.17 2165.46 629.5ZM2343.15 591.67V557.35H2452.74V591.67H2343.15ZM2476.55 688L2563.52 415H2640.35L2727.32 688H2685.59L2666.48 627.55H2537L2517.89 688H2476.55ZM2548.7 589.72H2654.78L2601.74 421.24L2548.7 589.72ZM2750.69 688V650.95H2802.95V452.05H2750.69V415H2895.38V452.05H2843.12V650.95H2895.38V688H2750.69Z" fill="#18DAE3"/>
<path d="M409.236 441.561C443.125 442.322 476.934 449.802 509.806 462.576" stroke="white" stroke-width="2.76583"/>
<path d="M728.997 441.561C695.108 442.322 661.299 449.802 628.427 462.576" stroke="white" stroke-width="2.76583"/>
<path d="M630.728 358.203H502.117V467.453H630.728V358.203Z" stroke="white" stroke-width="8.29748"/>
<path d="M659.77 501.334V468.145H475.151V501.334" stroke="white" stroke-width="8.29748"/>
<path d="M423.946 905.145L433.908 837.382H699.246L708.274 905.145H423.946Z" stroke="white" stroke-width="8.29748"/>
<path d="M467.545 838.765L497.935 502.717H470.934M665.993 838.765L635.361 502.717H664.093" stroke="white" stroke-width="8.29748"/>
<path d="M488.98 358.203H643.866" stroke="white" stroke-width="8.29748"/>
<path d="M374.889 905.145H760.722" stroke="white" stroke-width="8.29748"/>
<path d="M566.423 182.573C577.116 182.573 585.784 173.905 585.784 163.212C585.784 152.519 577.116 143.851 566.423 143.851C555.73 143.851 547.062 152.519 547.062 163.212C547.062 173.905 555.73 182.573 566.423 182.573Z" stroke="white" stroke-width="8.29748"/>
<path d="M486.319 262.782C488.488 220.044 523.971 186.03 567.46 186.03C610.949 186.03 646.433 220.044 648.601 262.782H486.319Z" fill="url(#paint0_radial_18_47)" stroke="white" stroke-width="8.29748"/>
<path d="M526.319 277.302H504.192V341.608H526.319V277.302Z" fill="white"/>
<path d="M628.654 277.302H606.527V341.608H628.654V277.302Z" fill="white"/>
<path d="M598.921 277.302H533.924V341.608H598.921V277.302Z" fill="white"/>
<path d="M424.674 332.619C441.961 332.619 483.448 322.593 500.389 312.567" stroke="white" stroke-width="2.76583"/>
<path d="M707.826 332.619C690.539 332.619 649.052 322.593 632.111 312.567" stroke="white" stroke-width="2.76583"/>
<path d="M319.919 500.297C337.205 500.297 392.867 471.602 405.313 448.438" stroke="white" stroke-width="2.76583"/>
<path d="M812.581 500.297C795.295 500.297 739.633 471.602 727.187 448.438" stroke="white" stroke-width="2.76583"/>
<path d="M331.328 695.288C371.432 686.645 447.492 643.429 477.571 605.053" stroke="white" stroke-width="2.76583"/>
<path d="M801.172 695.288C761.068 686.645 685.008 643.429 654.929 605.053" stroke="white" stroke-width="2.76583"/>
<path d="M479.991 581.198C432.28 543.513 379.038 517.238 323.376 509.288" stroke="white" stroke-width="2.76583"/>
<path d="M652.509 581.198C700.22 543.513 753.462 517.238 809.124 509.288" stroke="white" stroke-width="2.76583"/>
<path d="M410.499 345.065C416.377 368.574 417.414 399.69 413.957 425.274" stroke="white" stroke-width="2.76583"/>
<path d="M722.001 345.065C716.123 368.574 715.086 399.69 718.543 425.274" stroke="white" stroke-width="2.76583"/>
<path d="M310.584 529.684C323.376 577.049 326.487 621.648 320.264 683.533" stroke="white" stroke-width="2.76583"/>
<path d="M821.916 529.684C809.124 577.049 806.013 621.648 812.236 683.533" stroke="white" stroke-width="2.76583"/>
<path d="M566.077 542.821C576.961 542.821 585.784 533.999 585.784 523.115C585.784 512.231 576.961 503.408 566.077 503.408C555.194 503.408 546.371 512.231 546.371 523.115C546.371 533.999 555.194 542.821 566.077 542.821Z" fill="#18DAE3"/>
<path d="M566.077 675.581C576.961 675.581 585.784 666.759 585.784 655.875C585.784 644.991 576.961 636.168 566.077 636.168C555.194 636.168 546.371 644.991 546.371 655.875C546.371 666.759 555.194 675.581 566.077 675.581Z" fill="#18DAE3"/>
<path d="M304.707 531.067C315.591 531.067 324.414 522.244 324.414 511.36C324.414 500.476 315.591 491.654 304.707 491.654C293.823 491.654 285 500.476 285 511.36C285 522.244 293.823 531.067 304.707 531.067Z" fill="#18DAE3"/>
<path d="M827.794 531.067C816.91 531.067 808.087 522.244 808.087 511.361C808.087 500.477 816.91 491.654 827.794 491.654C838.677 491.654 847.5 500.477 847.5 511.361C847.5 522.244 838.677 531.067 827.794 531.067Z" fill="#18DAE3"/>
<path d="M566.077 414.902C576.961 414.902 585.784 406.08 585.784 395.196C585.784 384.312 576.961 375.49 566.077 375.49C555.194 375.49 546.371 384.312 546.371 395.196C546.371 406.08 555.194 414.902 566.077 414.902Z" fill="#18DAE3"/>
<path d="M491.4 610.584C502.284 610.584 511.107 601.761 511.107 590.878C511.107 579.994 502.284 571.171 491.4 571.171C480.516 571.171 471.694 579.994 471.694 590.878C471.694 601.761 480.516 610.584 491.4 610.584Z" fill="#18DAE3"/>
<path d="M643.52 610.584C654.404 610.584 663.227 601.761 663.227 590.878C663.227 579.994 654.404 571.171 643.52 571.171C632.636 571.171 623.813 579.994 623.813 590.878C623.813 601.761 632.636 610.584 643.52 610.584Z" fill="#18DAE3"/>
<path d="M410.845 347.831C418.483 347.831 424.674 341.64 424.674 334.002C424.674 326.364 418.483 320.173 410.845 320.173C403.207 320.173 397.016 326.364 397.016 334.002C397.016 341.64 403.207 347.831 410.845 347.831Z" fill="#18DAE3"/>
<path d="M721.655 347.831C714.017 347.831 707.826 341.64 707.826 334.002C707.826 326.365 714.017 320.173 721.655 320.173C729.293 320.173 735.484 326.365 735.484 334.002C735.484 341.64 729.293 347.831 721.655 347.831Z" fill="#18DAE3"/>
<path d="M410.845 452.241C418.483 452.241 424.674 446.05 424.674 438.412C424.674 430.775 418.483 424.583 410.845 424.583C403.207 424.583 397.016 430.775 397.016 438.412C397.016 446.05 403.207 452.241 410.845 452.241Z" fill="#18DAE3"/>
<path d="M721.655 452.241C714.017 452.241 707.826 446.05 707.826 438.412C707.826 430.775 714.017 424.583 721.655 424.583C729.293 424.583 735.484 430.775 735.484 438.412C735.484 446.05 729.293 452.241 721.655 452.241Z" fill="#18DAE3"/>
<path d="M318.881 710.154C326.519 710.154 332.71 703.963 332.71 696.325C332.71 688.687 326.519 682.496 318.881 682.496C311.244 682.496 305.052 688.687 305.052 696.325C305.052 703.963 311.244 710.154 318.881 710.154Z" fill="#18DAE3"/>
<path d="M813.619 710.154C805.981 710.154 799.79 703.963 799.79 696.325C799.79 688.688 805.981 682.496 813.619 682.496C821.256 682.496 827.448 688.688 827.448 696.325C827.448 703.963 821.256 710.154 813.619 710.154Z" fill="#18DAE3"/>
<path d="M637.053 591.66L566.168 520.775L495.283 591.66L566.168 662.544L637.053 591.66Z" stroke="#18DAE3" stroke-width="8.29748"/>
<path d="M637.053 460.283L566.168 389.398L495.283 460.283L566.168 531.167L637.053 460.283Z" stroke="#18DAE3" stroke-width="8.29748"/>
<path d="M505.229 481.283C516.113 481.283 524.935 472.46 524.935 461.576C524.935 450.693 516.113 441.87 505.229 441.87C494.345 441.87 485.522 450.693 485.522 461.576C485.522 472.46 494.345 481.283 505.229 481.283Z" fill="#18DAE3"/>
<path d="M629.691 481.283C640.574 481.283 649.397 472.46 649.397 461.576C649.397 450.693 640.574 441.87 629.691 441.87C618.807 441.87 609.984 450.693 609.984 461.576C609.984 472.46 618.807 481.283 629.691 481.283Z" fill="#18DAE3"/>
</g>
<defs>
<radialGradient id="paint0_radial_18_47" cx="0" cy="0" r="1" gradientUnits="userSpaceOnUse" gradientTransform="translate(567.806 240.655) rotate(90) scale(53.9336 46.1045)">
<stop stop-color="#18DAE3"/>
<stop offset="1" stop-color="#18DAE3" stop-opacity="0"/>
</radialGradient>
<clipPath id="clip0_18_47">
<rect width="3318" height="1106" fill="white"/>
</clipPath>
</defs>
</svg>
