<svg width="1540" height="1540" viewBox="0 0 1540 1540" fill="none" xmlns="http://www.w3.org/2000/svg">
<rect width="1540" height="1540" fill="white"/>
<path d="M361.762 1309L326.499 1174.25V1309H306.602V1171.1H345.608L380.674 1305.85L416.528 1171.1H455.534V1309H435.834V1174.25L400.374 1309H361.762ZM513.372 1311.56C493.081 1311.56 478.7 1298.36 478.7 1279.45C478.7 1260.54 492.687 1249.51 512.19 1247.54L546.665 1243.99C546.468 1231.97 537.8 1222.52 522.631 1222.52C508.644 1222.52 501.946 1231.38 500.173 1239.46L482.64 1234.34C487.171 1216.61 501.749 1205.18 522.631 1205.18C552.181 1205.18 565.971 1224.88 565.971 1245.17V1309H546.468V1277.87C546.468 1299.35 532.678 1311.56 513.372 1311.56ZM498.4 1279.45C498.4 1289.1 506.674 1295.21 517.509 1295.21C538.391 1295.21 546.665 1280.04 546.665 1265.66V1260.14L516.524 1263.3C504.507 1264.67 498.4 1270.19 498.4 1279.45ZM587.959 1309V1171.1H607.659V1309H587.959ZM660.937 1311.56C640.646 1311.56 626.265 1298.36 626.265 1279.45C626.265 1260.54 640.252 1249.51 659.755 1247.54L694.23 1243.99C694.033 1231.97 685.365 1222.52 670.196 1222.52C656.209 1222.52 649.511 1231.38 647.738 1239.46L630.205 1234.34C634.736 1216.61 649.314 1205.18 670.196 1205.18C699.746 1205.18 713.536 1224.88 713.536 1245.17V1309H694.033V1277.87C694.033 1299.35 680.243 1311.56 660.937 1311.56ZM645.965 1279.45C645.965 1289.1 654.239 1295.21 665.074 1295.21C685.956 1295.21 694.23 1280.04 694.23 1265.66V1260.14L664.089 1263.3C652.072 1264.67 645.965 1270.19 645.965 1279.45ZM774.333 1352.93C745.571 1352.93 725.871 1342.88 725.871 1325.75C725.871 1314.91 734.342 1305.26 753.845 1305.26H756.997C742.813 1303.88 736.115 1297.97 736.115 1289.89C736.115 1282.4 742.813 1275.51 756.997 1274.92C742.222 1269.8 733.357 1257.39 733.357 1241.43C733.357 1219.56 750.496 1205.18 773.742 1205.18C782.607 1205.18 790.487 1207.94 794.23 1209.91L825.75 1205.97V1225.08H788.517C807.035 1226.26 813.142 1238.08 813.142 1247.14C813.142 1266.45 794.821 1277.68 773.742 1277.68C768.226 1277.68 763.104 1276.89 758.573 1275.51C756.603 1277.09 755.224 1279.65 755.224 1282.01C755.224 1287.13 760.346 1289.3 765.665 1289.3H791.472C812.945 1289.3 827.326 1300.92 827.326 1318.65C827.326 1345.84 797.973 1352.93 774.333 1352.93ZM744.192 1319.64C744.192 1332.05 758.77 1335.79 774.333 1335.79C792.26 1335.79 807.232 1331.66 807.232 1319.24C807.232 1311.76 801.125 1306.24 788.911 1306.24H760.74C750.693 1306.24 744.192 1311.96 744.192 1319.64ZM752.466 1241.43C752.466 1253.64 760.937 1262.11 773.742 1262.11C786.547 1262.11 794.821 1253.64 794.821 1241.43C794.821 1229.81 786.547 1220.94 773.742 1220.94C760.937 1220.94 752.466 1229.81 752.466 1241.43ZM871.027 1311.56C850.736 1311.56 836.355 1298.36 836.355 1279.45C836.355 1260.54 850.342 1249.51 869.845 1247.54L904.32 1243.99C904.123 1231.97 895.455 1222.52 880.286 1222.52C866.299 1222.52 859.601 1231.38 857.828 1239.46L840.295 1234.34C844.826 1216.61 859.404 1205.18 880.286 1205.18C909.836 1205.18 923.626 1224.88 923.626 1245.17V1309H904.123V1277.87C904.123 1299.35 890.333 1311.56 871.027 1311.56ZM856.055 1279.45C856.055 1289.1 864.329 1295.21 875.164 1295.21C896.046 1295.21 904.32 1280.04 904.32 1265.66V1260.14L874.179 1263.3C862.162 1264.67 856.055 1270.19 856.055 1279.45ZM945.811 1260.34V1243H1001.17V1260.34H945.811ZM1013.19 1309L1057.12 1171.1H1095.93L1139.86 1309H1118.78L1109.13 1278.46H1043.73L1034.07 1309H1013.19ZM1049.64 1259.36H1103.22L1076.43 1174.25L1049.64 1259.36ZM1151.67 1309V1290.28H1178.07V1189.81H1151.67V1171.1H1224.76V1189.81H1198.36V1290.28H1224.76V1309H1151.67Z" fill="#090E2A"/>
<path d="M613.024 533.062C646.856 533.822 680.608 541.289 713.423 554.041" stroke="#090E2A" stroke-width="2.76113"/>
<path d="M932.243 533.062C898.411 533.822 864.66 541.289 831.844 554.041" stroke="#090E2A" stroke-width="2.76113"/>
<rect x="705.748" y="449.846" width="128.392" height="109.064" stroke="#090E2A" stroke-width="8.28338"/>
<path d="M863.133 592.734V559.6H678.827V592.734" stroke="#090E2A" stroke-width="8.28338"/>
<path d="M627.71 995.858L637.655 928.211H902.542L911.554 995.858H627.71Z" stroke="#090E2A" stroke-width="8.28338"/>
<path d="M671.234 929.591L701.573 594.115H674.618M869.345 929.591L838.766 594.115H867.449" stroke="#090E2A" stroke-width="8.28338"/>
<line x1="692.633" y1="449.846" x2="847.256" y2="449.846" stroke="#090E2A" stroke-width="8.28338"/>
<line x1="578.737" y1="995.858" x2="963.914" y2="995.858" stroke="#090E2A" stroke-width="8.28338"/>
<circle cx="769.945" cy="255.186" r="19.3279" stroke="#090E2A" stroke-width="8.28338"/>
<path d="M689.977 354.587C692.142 311.921 727.565 277.965 770.98 277.965C814.395 277.965 849.818 311.921 851.983 354.587H689.977Z" fill="url(#paint0_radial_13_658)" stroke="#090E2A" stroke-width="8.28338"/>
<rect x="707.819" y="369.083" width="22.089" height="64.1962" fill="#090E2A"/>
<rect x="809.981" y="369.083" width="22.089" height="64.1962" fill="#090E2A"/>
<rect x="737.501" y="369.083" width="64.8865" height="64.1962" fill="#090E2A"/>
<path d="M628.437 424.305C645.694 424.305 687.111 414.296 704.023 404.287" stroke="#090E2A" stroke-width="2.76113"/>
<path d="M911.107 424.305C893.85 424.305 852.433 414.296 835.521 404.287" stroke="#090E2A" stroke-width="2.76113"/>
<path d="M523.859 591.698C541.116 591.698 596.684 563.052 609.109 539.927" stroke="#090E2A" stroke-width="2.76113"/>
<path d="M1015.68 591.698C998.428 591.698 942.86 563.052 930.435 539.927" stroke="#090E2A" stroke-width="2.76113"/>
<path d="M535.249 786.358C575.285 777.729 651.216 734.587 681.243 696.276" stroke="#090E2A" stroke-width="2.76113"/>
<path d="M1004.3 786.358C964.259 777.729 888.328 734.587 858.301 696.276" stroke="#090E2A" stroke-width="2.76113"/>
<path d="M683.659 672.461C636.03 634.841 582.878 608.61 527.311 600.674" stroke="#090E2A" stroke-width="2.76113"/>
<path d="M855.885 672.461C903.514 634.841 956.666 608.61 1012.23 600.674" stroke="#090E2A" stroke-width="2.76113"/>
<path d="M614.286 436.73C620.154 460.2 621.189 491.262 617.738 516.803" stroke="#090E2A" stroke-width="2.76113"/>
<path d="M925.258 436.73C919.391 460.2 918.355 491.262 921.807 516.803" stroke="#090E2A" stroke-width="2.76113"/>
<path d="M514.541 621.035C527.311 668.32 530.417 712.843 524.204 774.623" stroke="#090E2A" stroke-width="2.76113"/>
<path d="M1025 621.035C1012.23 668.32 1009.13 712.843 1015.34 774.623" stroke="#090E2A" stroke-width="2.76113"/>
<circle cx="769.6" cy="614.478" r="19.673" fill="#18DAE3"/>
<circle cx="769.6" cy="747.012" r="19.673" fill="#18DAE3"/>
<circle cx="508.673" cy="602.743" r="19.673" fill="#18DAE3"/>
<circle cx="19.673" cy="19.673" r="19.673" transform="matrix(-1 0 0 1 1050.54 583.07)" fill="#18DAE3"/>
<circle cx="769.6" cy="486.776" r="19.673" fill="#18DAE3"/>
<circle cx="695.049" cy="682.125" r="19.673" fill="#18DAE3"/>
<circle cx="846.911" cy="682.125" r="19.673" fill="#18DAE3"/>
<circle cx="614.631" cy="425.686" r="13.8056" fill="#18DAE3"/>
<circle cx="13.8056" cy="13.8056" r="13.8056" transform="matrix(-1 0 0 1 938.719 411.88)" fill="#18DAE3"/>
<circle cx="614.631" cy="529.918" r="13.8056" fill="#18DAE3"/>
<circle cx="13.8056" cy="13.8056" r="13.8056" transform="matrix(-1 0 0 1 938.719 516.113)" fill="#18DAE3"/>
<circle cx="522.824" cy="787.393" r="13.8056" fill="#18DAE3"/>
<circle cx="13.8056" cy="13.8056" r="13.8056" transform="matrix(-1 0 0 1 1030.53 773.588)" fill="#18DAE3"/>
<rect x="769.69" y="612.142" width="100.075" height="100.075" transform="rotate(45 769.69 612.142)" stroke="#18DAE3" stroke-width="8.28338"/>
<rect x="769.69" y="480.989" width="100.075" height="100.075" transform="rotate(45 769.69 480.989)" stroke="#18DAE3" stroke-width="8.28338"/>
<circle cx="708.855" cy="553.043" r="19.673" fill="#18DAE3"/>
<circle cx="833.105" cy="553.043" r="19.673" fill="#18DAE3"/>
<defs>
<radialGradient id="paint0_radial_13_658" cx="0" cy="0" r="1" gradientUnits="userSpaceOnUse" gradientTransform="translate(771.325 332.498) rotate(90) scale(53.842 46.0262)">
<stop stop-color="#18DAE3"/>
<stop offset="1" stop-color="#18DAE3" stop-opacity="0"/>
</radialGradient>
</defs>
</svg>
