<svg width="486" height="135" viewBox="0 0 486 135" fill="none" xmlns="http://www.w3.org/2000/svg">
<rect width="486" height="135" fill="#090E2A"/>
<path d="M66.5 90C49.6553 90 36 102.984 36 119H97C97 102.984 83.3447 90 66.5 90Z" fill="url(#paint0_linear_13_734)"/>
<rect x="58" y="32" width="16.5" height="6" fill="white"/>
<path d="M48.9892 105.032H83.4613L84.7429 114.652H47.575L48.9892 105.032Z" fill="white"/>
<path d="M76.6122 99.2527C76.7249 101.221 76.8168 102.834 76.8832 104H56.1158C56.1817 102.834 56.2729 101.22 56.3847 99.2518C56.6268 94.9889 56.9652 89.0611 57.3502 82.4012C58.0802 69.7766 58.9777 54.526 59.7056 43H73.265C73.9986 54.5261 74.9033 69.7771 75.6391 82.4021C76.0272 89.062 76.3682 94.9898 76.6122 99.2527Z" fill="#090E2A" stroke="white" stroke-width="4"/>
<rect x="52.6472" y="44.7765" width="27.548" height="9.27013" fill="#18DAE3"/>
<circle cx="66.2" cy="16" r="3" fill="#18DAE3"/>
<path d="M66.3338 18C60.3688 18 55.5332 22.816 55.5332 28.7568H77.1343C77.1343 22.816 72.2988 18 66.3338 18Z" fill="#18DAE3"/>
<circle cx="41" cy="78" r="3" fill="#18DAE3"/>
<circle cx="3" cy="3" r="3" transform="matrix(-1 0 0 1 94 75)" fill="#18DAE3"/>
<circle cx="66.1589" cy="65.1095" r="2.49244" fill="#18DAE3"/>
<circle cx="66.1589" cy="79.4924" r="2.49244" fill="#18DAE3"/>
<circle cx="66.1589" cy="93.8753" r="2.49244" fill="#18DAE3"/>
<circle cx="31" cy="55" r="3" fill="#18DAE3"/>
<circle cx="3" cy="3" r="3" transform="matrix(-1 0 0 1 104 52)" fill="#18DAE3"/>
<circle cx="44" cy="34" r="3" fill="#18DAE3"/>
<circle cx="3" cy="3" r="3" transform="matrix(-1 0 0 1 92 31)" fill="#18DAE3"/>
<path d="M169.616 91L158.16 47.224V91H151.696V46.2H164.368L175.76 89.976L187.408 46.2H200.08V91H193.68V47.224L182.16 91H169.616ZM218.87 91.832C212.278 91.832 207.606 87.544 207.606 81.4C207.606 75.256 212.15 71.672 218.486 71.032L229.686 69.88C229.622 65.976 226.806 62.904 221.878 62.904C217.334 62.904 215.158 65.784 214.582 68.408L208.886 66.744C210.358 60.984 215.094 57.272 221.878 57.272C231.478 57.272 235.958 63.672 235.958 70.264V91H229.622V80.888C229.622 87.864 225.142 91.832 218.87 91.832ZM214.006 81.4C214.006 84.536 216.694 86.52 220.214 86.52C226.998 86.52 229.686 81.592 229.686 76.92V75.128L219.894 76.152C215.99 76.6 214.006 78.392 214.006 81.4ZM243.102 91V46.2H249.502V91H243.102ZM266.81 91.832C260.218 91.832 255.546 87.544 255.546 81.4C255.546 75.256 260.09 71.672 266.426 71.032L277.626 69.88C277.562 65.976 274.746 62.904 269.818 62.904C265.274 62.904 263.098 65.784 262.522 68.408L256.826 66.744C258.298 60.984 263.034 57.272 269.818 57.272C279.418 57.272 283.898 63.672 283.898 70.264V91H277.562V80.888C277.562 87.864 273.082 91.832 266.81 91.832ZM261.946 81.4C261.946 84.536 264.634 86.52 268.154 86.52C274.938 86.52 277.626 81.592 277.626 76.92V75.128L267.834 76.152C263.93 76.6 261.946 78.392 261.946 81.4ZM303.65 105.272C294.306 105.272 287.906 102.008 287.906 96.44C287.906 92.92 290.658 89.784 296.994 89.784H298.018C293.41 89.336 291.234 87.416 291.234 84.792C291.234 82.36 293.41 80.12 298.018 79.928C293.218 78.264 290.338 74.232 290.338 69.048C290.338 61.944 295.906 57.272 303.458 57.272C306.338 57.272 308.898 58.168 310.114 58.808L320.354 57.528V63.736H308.258C314.274 64.12 316.258 67.96 316.258 70.904C316.258 77.176 310.306 80.824 303.458 80.824C301.666 80.824 300.002 80.568 298.53 80.12C297.89 80.632 297.442 81.464 297.442 82.232C297.442 83.896 299.106 84.6 300.834 84.6H309.218C316.194 84.6 320.866 88.376 320.866 94.136C320.866 102.968 311.33 105.272 303.65 105.272ZM293.858 94.456C293.858 98.488 298.594 99.704 303.65 99.704C309.474 99.704 314.338 98.36 314.338 94.328C314.338 91.896 312.354 90.104 308.386 90.104H299.234C295.97 90.104 293.858 91.96 293.858 94.456ZM296.546 69.048C296.546 73.016 299.298 75.768 303.458 75.768C307.618 75.768 310.306 73.016 310.306 69.048C310.306 65.272 307.618 62.392 303.458 62.392C299.298 62.392 296.546 65.272 296.546 69.048ZM335.063 91.832C328.471 91.832 323.799 87.544 323.799 81.4C323.799 75.256 328.343 71.672 334.679 71.032L345.879 69.88C345.815 65.976 342.999 62.904 338.071 62.904C333.527 62.904 331.351 65.784 330.775 68.408L325.079 66.744C326.551 60.984 331.287 57.272 338.071 57.272C347.671 57.272 352.151 63.672 352.151 70.264V91H345.815V80.888C345.815 87.864 341.335 91.832 335.063 91.832ZM330.199 81.4C330.199 84.536 332.887 86.52 336.407 86.52C343.191 86.52 345.879 81.592 345.879 76.92V75.128L336.087 76.152C332.183 76.6 330.199 78.392 330.199 81.4ZM359.358 75.192V69.56H377.342V75.192H359.358ZM381.248 91L395.52 46.2H408.128L422.4 91H415.552L412.416 81.08H391.168L388.032 91H381.248ZM393.088 74.872H410.496L401.792 47.224L393.088 74.872ZM426.236 91V84.92H434.812V52.28H426.236V46.2H449.98V52.28H441.404V84.92H449.98V91H426.236Z" fill="#18DAE3"/>
<defs>
<linearGradient id="paint0_linear_13_734" x1="66.5" y1="90" x2="66.5" y2="119" gradientUnits="userSpaceOnUse">
<stop stop-color="#18DAE3"/>
<stop offset="1" stop-color="#18DAE3" stop-opacity="0"/>
</linearGradient>
</defs>
</svg>
