<?xml version="1.0" encoding="UTF-8" standalone="no"?>
<!DOCTYPE svg PUBLIC "-//W3C//DTD SVG 1.1//EN" "http://www.w3.org/Graphics/SVG/1.1/DTD/svg11.dtd">
<svg width="100%" height="100%" viewBox="0 0 919 1135" version="1.1" xmlns="http://www.w3.org/2000/svg" xmlns:xlink="http://www.w3.org/1999/xlink" xml:space="preserve" xmlns:serif="http://www.serif.com/" style="fill-rule:evenodd;clip-rule:evenodd;">
    <g transform="matrix(1,0,0,1,-306.602,-218.745507)">
        <path d="M361.762,1309L326.499,1174.25L326.499,1309L306.602,1309L306.602,1171.1L345.608,1171.1L380.674,1305.85L416.528,1171.1L455.534,1171.1L455.534,1309L435.834,1309L435.834,1174.25L400.374,1309L361.762,1309ZM513.372,1311.56C493.081,1311.56 478.7,1298.36 478.7,1279.45C478.7,1260.54 492.687,1249.51 512.19,1247.54L546.665,1243.99C546.468,1231.97 537.8,1222.52 522.631,1222.52C508.644,1222.52 501.946,1231.38 500.173,1239.46L482.64,1234.34C487.171,1216.61 501.749,1205.18 522.631,1205.18C552.181,1205.18 565.971,1224.88 565.971,1245.17L565.971,1309L546.468,1309L546.468,1277.87C546.468,1299.35 532.678,1311.56 513.372,1311.56ZM498.4,1279.45C498.4,1289.1 506.674,1295.21 517.509,1295.21C538.391,1295.21 546.665,1280.04 546.665,1265.66L546.665,1260.14L516.524,1263.3C504.507,1264.67 498.4,1270.19 498.4,1279.45ZM587.959,1309L587.959,1171.1L607.659,1171.1L607.659,1309L587.959,1309ZM660.937,1311.56C640.646,1311.56 626.265,1298.36 626.265,1279.45C626.265,1260.54 640.252,1249.51 659.755,1247.54L694.23,1243.99C694.033,1231.97 685.365,1222.52 670.196,1222.52C656.209,1222.52 649.511,1231.38 647.738,1239.46L630.205,1234.34C634.736,1216.61 649.314,1205.18 670.196,1205.18C699.746,1205.18 713.536,1224.88 713.536,1245.17L713.536,1309L694.033,1309L694.033,1277.87C694.033,1299.35 680.243,1311.56 660.937,1311.56ZM645.965,1279.45C645.965,1289.1 654.239,1295.21 665.074,1295.21C685.956,1295.21 694.23,1280.04 694.23,1265.66L694.23,1260.14L664.089,1263.3C652.072,1264.67 645.965,1270.19 645.965,1279.45ZM774.333,1352.93C745.571,1352.93 725.871,1342.88 725.871,1325.75C725.871,1314.91 734.342,1305.26 753.845,1305.26L756.997,1305.26C742.813,1303.88 736.115,1297.97 736.115,1289.89C736.115,1282.4 742.813,1275.51 756.997,1274.92C742.222,1269.8 733.357,1257.39 733.357,1241.43C733.357,1219.56 750.496,1205.18 773.742,1205.18C782.607,1205.18 790.487,1207.94 794.23,1209.91L825.75,1205.97L825.75,1225.08L788.517,1225.08C807.035,1226.26 813.142,1238.08 813.142,1247.14C813.142,1266.45 794.821,1277.68 773.742,1277.68C768.226,1277.68 763.104,1276.89 758.573,1275.51C756.603,1277.09 755.224,1279.65 755.224,1282.01C755.224,1287.13 760.346,1289.3 765.665,1289.3L791.472,1289.3C812.945,1289.3 827.326,1300.92 827.326,1318.65C827.326,1345.84 797.973,1352.93 774.333,1352.93ZM744.192,1319.64C744.192,1332.05 758.77,1335.79 774.333,1335.79C792.26,1335.79 807.232,1331.66 807.232,1319.24C807.232,1311.76 801.125,1306.24 788.911,1306.24L760.74,1306.24C750.693,1306.24 744.192,1311.96 744.192,1319.64ZM752.466,1241.43C752.466,1253.64 760.937,1262.11 773.742,1262.11C786.547,1262.11 794.821,1253.64 794.821,1241.43C794.821,1229.81 786.547,1220.94 773.742,1220.94C760.937,1220.94 752.466,1229.81 752.466,1241.43ZM871.027,1311.56C850.736,1311.56 836.355,1298.36 836.355,1279.45C836.355,1260.54 850.342,1249.51 869.845,1247.54L904.32,1243.99C904.123,1231.97 895.455,1222.52 880.286,1222.52C866.299,1222.52 859.601,1231.38 857.828,1239.46L840.295,1234.34C844.826,1216.61 859.404,1205.18 880.286,1205.18C909.836,1205.18 923.626,1224.88 923.626,1245.17L923.626,1309L904.123,1309L904.123,1277.87C904.123,1299.35 890.333,1311.56 871.027,1311.56ZM856.055,1279.45C856.055,1289.1 864.329,1295.21 875.164,1295.21C896.046,1295.21 904.32,1280.04 904.32,1265.66L904.32,1260.14L874.179,1263.3C862.162,1264.67 856.055,1270.19 856.055,1279.45ZM945.811,1260.34L945.811,1243L1001.17,1243L1001.17,1260.34L945.811,1260.34ZM1013.19,1309L1057.12,1171.1L1095.93,1171.1L1139.86,1309L1118.78,1309L1109.13,1278.46L1043.73,1278.46L1034.07,1309L1013.19,1309ZM1049.64,1259.36L1103.22,1259.36L1076.43,1174.25L1049.64,1259.36ZM1151.67,1309L1151.67,1290.28L1178.07,1290.28L1178.07,1189.81L1151.67,1189.81L1151.67,1171.1L1224.76,1171.1L1224.76,1189.81L1198.36,1189.81L1198.36,1290.28L1224.76,1290.28L1224.76,1309L1151.67,1309Z" style="fill:rgb(24,218,227);fill-rule:nonzero;"/>
        <path d="M613.236,533.56C647.125,534.322 680.934,541.802 713.806,554.576" style="fill:none;fill-rule:nonzero;stroke:white;stroke-width:2.77px;"/>
        <path d="M932.997,533.56C899.108,534.322 865.299,541.802 832.427,554.576" style="fill:none;fill-rule:nonzero;stroke:white;stroke-width:2.77px;"/>
        <rect x="706.117" y="450.203" width="128.611" height="109.25" style="fill:none;stroke:white;stroke-width:8.3px;"/>
        <path d="M863.77,593.334L863.77,560.145L679.151,560.145L679.151,593.334" style="fill:none;fill-rule:nonzero;stroke:white;stroke-width:8.3px;"/>
        <path d="M627.946,997.145L637.908,929.382L903.246,929.382L912.274,997.145L627.946,997.145Z" style="fill:none;fill-rule:nonzero;stroke:white;stroke-width:8.3px;"/>
        <path d="M671.545,930.765L701.935,594.717L674.934,594.717M869.993,930.765L839.361,594.717L868.093,594.717" style="fill:none;fill-rule:nonzero;stroke:white;stroke-width:8.3px;"/>
        <path d="M692.98,450.203L847.866,450.203" style="fill:none;fill-rule:nonzero;stroke:white;stroke-width:8.3px;"/>
        <path d="M578.889,997.145L964.722,997.145" style="fill:none;fill-rule:nonzero;stroke:white;stroke-width:8.3px;"/>
        <circle cx="770.423" cy="255.212" r="19.361" style="fill:none;stroke:white;stroke-width:8.3px;"/>
        <path d="M690.319,354.782C692.488,312.044 727.971,278.03 771.46,278.03C814.949,278.03 850.433,312.044 852.601,354.782L690.319,354.782Z" style="fill:none;fill-rule:nonzero;stroke:white;stroke-width:8.3px;"/>
        <rect x="708.192" y="369.302" width="22.127" height="64.305" style="fill:white;"/>
        <rect x="810.527" y="369.302" width="22.127" height="64.305" style="fill:white;"/>
        <rect x="737.924" y="369.302" width="64.997" height="64.305" style="fill:white;"/>
        <path d="M628.674,424.619C645.961,424.619 687.448,414.593 704.389,404.567" style="fill:none;fill-rule:nonzero;stroke:white;stroke-width:2.77px;"/>
        <path d="M911.826,424.619C894.539,424.619 853.052,414.593 836.111,404.567" style="fill:none;fill-rule:nonzero;stroke:white;stroke-width:2.77px;"/>
        <path d="M523.919,592.297C541.205,592.297 596.867,563.602 609.313,540.438" style="fill:none;fill-rule:nonzero;stroke:white;stroke-width:2.77px;"/>
        <path d="M1016.58,592.297C999.295,592.297 943.633,563.602 931.187,540.438" style="fill:none;fill-rule:nonzero;stroke:white;stroke-width:2.77px;"/>
        <path d="M535.328,787.288C575.432,778.645 651.492,735.429 681.571,697.053" style="fill:none;fill-rule:nonzero;stroke:white;stroke-width:2.77px;"/>
        <path d="M1005.17,787.288C965.068,778.645 889.008,735.429 858.929,697.053" style="fill:none;fill-rule:nonzero;stroke:white;stroke-width:2.77px;"/>
        <path d="M683.991,673.198C636.28,635.513 583.038,609.238 527.376,601.288" style="fill:none;fill-rule:nonzero;stroke:white;stroke-width:2.77px;"/>
        <path d="M856.509,673.198C904.22,635.513 957.462,609.238 1013.12,601.288" style="fill:none;fill-rule:nonzero;stroke:white;stroke-width:2.77px;"/>
        <path d="M614.499,437.065C620.377,460.575 621.414,491.69 617.957,517.274" style="fill:none;fill-rule:nonzero;stroke:white;stroke-width:2.77px;"/>
        <path d="M926,437.065C920.123,460.575 919.086,491.69 922.543,517.274" style="fill:none;fill-rule:nonzero;stroke:white;stroke-width:2.77px;"/>
        <path d="M514.584,621.684C527.376,669.049 530.487,713.648 524.264,775.533" style="fill:none;fill-rule:nonzero;stroke:white;stroke-width:2.77px;"/>
        <path d="M1025.92,621.684C1013.12,669.049 1010.01,713.648 1016.24,775.533" style="fill:none;fill-rule:nonzero;stroke:white;stroke-width:2.77px;"/>
        <circle cx="770.077" cy="615.115" r="19.707" style="fill:rgb(24,218,227);"/>
        <circle cx="770.077" cy="747.875" r="19.707" style="fill:rgb(24,218,227);"/>
        <circle cx="508.707" cy="603.361" r="19.707" style="fill:rgb(24,218,227);"/>
        <g transform="matrix(-1,0,0,1,1051.5,583.654)">
            <circle cx="19.706" cy="19.706" r="19.706" style="fill:rgb(24,218,227);"/>
        </g>
        <circle cx="770.077" cy="487.196" r="19.707" style="fill:rgb(24,218,227);"/>
        <circle cx="695.4" cy="682.878" r="19.707" style="fill:rgb(24,218,227);"/>
        <circle cx="847.52" cy="682.878" r="19.707" style="fill:rgb(24,218,227);"/>
        <circle cx="614.845" cy="426.002" r="13.829" style="fill:rgb(24,218,227);"/>
        <g transform="matrix(-1,0,0,1,939.484,412.173)">
            <circle cx="13.829" cy="13.829" r="13.829" style="fill:rgb(24,218,227);"/>
        </g>
        <circle cx="614.845" cy="530.412" r="13.829" style="fill:rgb(24,218,227);"/>
        <g transform="matrix(-1,0,0,1,939.484,516.583)">
            <circle cx="13.829" cy="13.829" r="13.829" style="fill:rgb(24,218,227);"/>
        </g>
        <circle cx="522.881" cy="788.325" r="13.829" style="fill:rgb(24,218,227);"/>
        <g transform="matrix(-1,0,0,1,1031.45,774.496)">
            <circle cx="13.829" cy="13.829" r="13.829" style="fill:rgb(24,218,227);"/>
        </g>
        <g transform="matrix(0.707107,0.707107,-0.707107,0.707107,658.875049,-365.11308)">
            <rect x="770.168" y="612.776" width="100.246" height="100.246" style="fill:none;stroke:rgb(24,218,227);stroke-width:8.3px;"/>
        </g>
        <g transform="matrix(0.707107,0.707107,-0.707107,0.707107,565.977482,-403.592513)">
            <rect x="770.168" y="481.399" width="100.246" height="100.246" style="fill:none;stroke:rgb(24,218,227);stroke-width:8.3px;"/>
        </g>
        <circle cx="709.229" cy="553.576" r="19.707" style="fill:rgb(24,218,227);"/>
        <circle cx="833.691" cy="553.576" r="19.707" style="fill:rgb(24,218,227);"/>
    </g>
</svg>
