<svg width="1540" height="1540" viewBox="0 0 1540 1540" fill="none" xmlns="http://www.w3.org/2000/svg">
<g clip-path="url(#clip0_21_2)">
<path d="M529.672 574.553C578.684 575.655 627.579 586.472 675.119 604.946" stroke="white" stroke-width="4"/>
<path d="M992.119 574.553C943.108 575.655 894.212 586.472 846.672 604.946" stroke="white" stroke-width="4"/>
<path d="M850 454H664V612H850V454Z" stroke="white" stroke-width="12"/>
<path d="M892 661V613H625V661" stroke="white" stroke-width="12"/>
<path d="M550.947 1245L565.354 1147H949.091L962.148 1245H550.947Z" stroke="white" stroke-width="12"/>
<path d="M614 1149L657.951 663H618.902M901 1149L856.7 663H898.252" stroke="white" stroke-width="12"/>
<path d="M645 454H869" stroke="white" stroke-width="12"/>
<path d="M480 1245H1038" stroke="white" stroke-width="12"/>
<path d="M757 200C772.464 200 785 187.464 785 172C785 156.536 772.464 144 757 144C741.536 144 729 156.536 729 172C729 187.464 741.536 200 757 200Z" stroke="white" stroke-width="12"/>
<path d="M875.848 316H641.152C644.288 254.191 695.606 205 758.5 205C821.394 205 872.712 254.191 875.848 316Z" fill="url(#paint0_radial_21_2)" stroke="white" stroke-width="12"/>
<path d="M699 337H667V430H699V337Z" fill="white"/>
<path d="M847 337H815V430H847V337Z" fill="white"/>
<path d="M804 337H710V430H804V337Z" fill="white"/>
<path d="M552 417C577 417 637 402.5 661.5 388" stroke="white" stroke-width="4"/>
<path d="M961.5 417C936.5 417 876.5 402.5 852 388" stroke="white" stroke-width="4"/>
<path d="M400.5 659.5C425.5 659.5 506 618 524 584.5" stroke="white" stroke-width="4"/>
<path d="M1113 659.5C1088 659.5 1007.5 618 989.5 584.5" stroke="white" stroke-width="4"/>
<path d="M417 941.5C475 929 585 866.5 628.5 811" stroke="white" stroke-width="4"/>
<path d="M1096.5 941.5C1038.5 929 928.5 866.5 885 811" stroke="white" stroke-width="4"/>
<path d="M632 776.5C563 722 486 684 405.5 672.503" stroke="white" stroke-width="4"/>
<path d="M881.5 776.5C950.5 722 1027.5 684 1108 672.503" stroke="white" stroke-width="4"/>
<path d="M531.5 435C540 469 541.5 514 536.5 551" stroke="white" stroke-width="4"/>
<path d="M982 435C973.5 469 972 514 977 551" stroke="white" stroke-width="4"/>
<path d="M387 702C405.5 770.5 410 835 401 924.5" stroke="white" stroke-width="4"/>
<path d="M1126.5 702C1108 770.5 1103.5 835 1112.5 924.5" stroke="white" stroke-width="4"/>
<path d="M756.5 721C772.24 721 785 708.24 785 692.5C785 676.76 772.24 664 756.5 664C740.76 664 728 676.76 728 692.5C728 708.24 740.76 721 756.5 721Z" fill="#18DAE3"/>
<path d="M756.5 913C772.24 913 785 900.24 785 884.5C785 868.76 772.24 856 756.5 856C740.76 856 728 868.76 728 884.5C728 900.24 740.76 913 756.5 913Z" fill="#18DAE3"/>
<path d="M378.5 704C394.24 704 407 691.24 407 675.5C407 659.76 394.24 647 378.5 647C362.76 647 350 659.76 350 675.5C350 691.24 362.76 704 378.5 704Z" fill="#18DAE3"/>
<path d="M1135 704C1119.26 704 1106.5 691.24 1106.5 675.5C1106.5 659.76 1119.26 647 1135 647C1150.74 647 1163.5 659.76 1163.5 675.5C1163.5 691.24 1150.74 704 1135 704Z" fill="#18DAE3"/>
<path d="M756.5 536C772.24 536 785 523.24 785 507.5C785 491.76 772.24 479 756.5 479C740.76 479 728 491.76 728 507.5C728 523.24 740.76 536 756.5 536Z" fill="#18DAE3"/>
<path d="M648.5 819C664.24 819 677 806.24 677 790.5C677 774.76 664.24 762 648.5 762C632.76 762 620 774.76 620 790.5C620 806.24 632.76 819 648.5 819Z" fill="#18DAE3"/>
<path d="M868.5 819C884.24 819 897 806.24 897 790.5C897 774.76 884.24 762 868.5 762C852.76 762 840 774.76 840 790.5C840 806.24 852.76 819 868.5 819Z" fill="#18DAE3"/>
<path d="M532 439C543.046 439 552 430.046 552 419C552 407.954 543.046 399 532 399C520.954 399 512 407.954 512 419C512 430.046 520.954 439 532 439Z" fill="#18DAE3"/>
<path d="M981.5 439C970.454 439 961.5 430.046 961.5 419C961.5 407.954 970.454 399 981.5 399C992.546 399 1001.5 407.954 1001.5 419C1001.5 430.046 992.546 439 981.5 439Z" fill="#18DAE3"/>
<path d="M532 590C543.046 590 552 581.046 552 570C552 558.954 543.046 550 532 550C520.954 550 512 558.954 512 570C512 581.046 520.954 590 532 590Z" fill="#18DAE3"/>
<path d="M981.5 590C970.454 590 961.5 581.046 961.5 570C961.5 558.954 970.454 550 981.5 550C992.546 550 1001.5 558.954 1001.5 570C1001.5 581.046 992.546 590 981.5 590Z" fill="#18DAE3"/>
<path d="M399 963C410.046 963 419 954.046 419 943C419 931.954 410.046 923 399 923C387.954 923 379 931.954 379 943C379 954.046 387.954 963 399 963Z" fill="#18DAE3"/>
<path d="M1114.5 963C1103.45 963 1094.5 954.046 1094.5 943C1094.5 931.954 1103.45 923 1114.5 923C1125.55 923 1134.5 931.954 1134.5 943C1134.5 954.046 1125.55 963 1114.5 963Z" fill="#18DAE3"/>
<path d="M859.146 791.631L756.631 689.116L654.116 791.631L756.631 894.146L859.146 791.631Z" stroke="#18DAE3" stroke-width="12"/>
<path d="M859.146 601.631L756.631 499.116L654.116 601.631L756.631 704.146L859.146 601.631Z" stroke="#18DAE3" stroke-width="12"/>
<path d="M668.5 632C684.24 632 697 619.24 697 603.5C697 587.76 684.24 575 668.5 575C652.76 575 640 587.76 640 603.5C640 619.24 652.76 632 668.5 632Z" fill="#18DAE3"/>
<path d="M848.5 632C864.24 632 877 619.24 877 603.5C877 587.76 864.24 575 848.5 575C832.76 575 820 587.76 820 603.5C820 619.24 832.76 632 848.5 632Z" fill="#18DAE3"/>
</g>
<defs>
<radialGradient id="paint0_radial_21_2" cx="0" cy="0" r="1" gradientUnits="userSpaceOnUse" gradientTransform="translate(759 284) rotate(90) scale(78 66.6774)">
<stop stop-color="#18DAE3"/>
<stop offset="1" stop-color="#18DAE3" stop-opacity="0"/>
</radialGradient>
<clipPath id="clip0_21_2">
<rect width="1540" height="1540" fill="white"/>
</clipPath>
</defs>
</svg>
